<svg width="104" height="104" viewBox="0 0 104 104" fill="none" xmlns="http://www.w3.org/2000/svg">
<path fill-rule="evenodd" clip-rule="evenodd" d="M29.8321 40.5311C16.3266 48.2387 7.22223 62.7784 7.22223 79.4444C7.22223 79.9279 7.22993 80.4093 7.24534 80.8889H96.7547C96.7701 80.4093 96.7778 79.9279 96.7778 79.4444C96.7778 62.7799 87.6735 48.2401 74.1679 40.5311L81.1778 28.3891C81.5548 27.7259 81.6543 26.9406 81.4544 26.2044C81.2545 25.4681 80.7716 24.8409 80.1109 24.4594C79.4502 24.078 78.6655 23.9733 77.928 24.1683C77.1905 24.3633 76.56 24.8421 76.1742 25.5002L68.9621 37.9889C63.5786 35.7868 57.8165 34.6583 52 34.6667C46.1834 34.6587 40.4213 35.7878 35.0379 37.9903L27.8258 25.5002C27.6375 25.169 27.3855 24.8783 27.0844 24.6449C26.7833 24.4115 26.439 24.2399 26.0713 24.1401C25.7037 24.0403 25.3199 24.0142 24.9421 24.0633C24.5643 24.1124 24.1999 24.2357 23.8699 24.4262C23.54 24.6167 23.251 24.8706 23.0196 25.1733C22.7882 25.4759 22.6189 25.8213 22.5215 26.1897C22.4241 26.558 22.4006 26.942 22.4522 27.3194C22.5038 27.6969 22.6295 28.0604 22.8222 28.3891L29.8321 40.5311Z" fill="#B1CC33"/>
<path d="M29.8321 39.0866L30.5485 40.3404C30.7139 40.2461 30.8589 40.1199 30.9753 39.9693C31.0917 39.8187 31.1772 39.6466 31.2269 39.4628C31.2766 39.2791 31.2894 39.0873 31.2647 38.8985C31.24 38.7098 31.1783 38.5278 31.083 38.363L29.8321 39.0866ZM7.24533 79.4444L5.80088 79.4907C5.81289 79.8657 5.97036 80.2213 6.23995 80.4823C6.50955 80.7432 6.87011 80.8891 7.24533 80.8889V79.4444ZM96.7547 79.4444V80.8889C97.1299 80.8891 97.4904 80.7432 97.76 80.4823C98.0296 80.2213 98.1871 79.8657 98.1991 79.4907L96.7547 79.4444ZM74.1679 39.0866L72.917 38.3644C72.8219 38.5292 72.7604 38.7111 72.7358 38.8997C72.7112 39.0882 72.7241 39.2798 72.7738 39.4634C72.8234 39.647 72.9089 39.819 73.0251 39.9695C73.1414 40.12 73.2863 40.2461 73.4514 40.3404L74.1679 39.0866ZM68.9621 36.5444L68.4147 37.882C68.7381 38.0143 69.0986 38.0249 69.4293 37.9118C69.76 37.7986 70.0384 37.5694 70.213 37.2666L68.9621 36.5444ZM35.0379 36.5444L33.787 37.2666C33.9616 37.5694 34.24 37.7986 34.5707 37.9118C34.9014 38.0249 35.2619 38.0143 35.5853 37.882L35.0379 36.5444ZM8.66666 78C8.66666 61.8742 17.4749 47.8039 30.5485 40.3404L29.1157 37.8314C15.1782 45.7889 5.77777 60.7952 5.77777 78H8.66666ZM8.68833 79.3982C8.67388 78.9341 8.66666 78.468 8.66666 78H5.77777C5.77777 78.4988 5.78547 78.9957 5.80088 79.4907L8.68833 79.3982ZM96.7561 78H7.24244V80.8889H96.7547L96.7561 78ZM95.3333 78C95.3333 78.468 95.3261 78.9341 95.3117 79.3982L98.1991 79.4907C98.2145 78.9957 98.2222 78.4988 98.2222 78H95.3333ZM73.4514 40.3404C86.5251 47.8039 95.3333 61.8742 95.3333 78H98.2222C98.2222 60.7966 88.8218 45.7889 74.8843 37.83L73.4514 40.3404ZM79.9269 26.2224L72.917 38.3644L75.4188 39.8074L82.4287 27.6669L79.9269 26.2224ZM79.3982 24.2493C79.73 24.4409 79.972 24.7564 80.0712 25.1264C80.1703 25.4964 80.1184 25.8907 79.9269 26.2224L82.4287 27.6669C83.0033 26.6716 83.159 25.4888 82.8616 24.3787C82.5641 23.2687 81.8379 22.3207 80.8427 21.7461L79.3982 24.2493ZM77.4251 24.778C77.6167 24.4462 77.9321 24.2042 78.3022 24.105C78.6722 24.0059 79.0665 24.0578 79.3982 24.2493L80.8427 21.7461C79.8474 21.1715 78.6646 21.0172 77.5545 21.3146C76.4444 21.6121 75.498 22.3383 74.9233 23.3335L77.4251 24.778ZM70.213 37.2666L77.4251 24.778L74.9233 23.3335L67.7112 35.8222L70.213 37.2666ZM52 34.6667C57.8124 34.6667 63.3533 35.8092 68.4147 37.882L69.5095 35.2112C63.9525 32.9368 58.0045 31.7705 52 31.7778V34.6667ZM35.5853 37.882C40.795 35.7503 46.3711 34.659 52 34.6667V31.7778C45.9956 31.77 40.0476 32.9359 34.4904 35.2098L35.5853 37.882ZM36.2888 35.8237L29.0767 23.3335L26.5749 24.7765L33.787 37.2681L36.2888 35.8237ZM29.0767 23.3335C28.502 22.3383 27.5555 21.6121 26.4455 21.3146C25.3354 21.0172 24.1526 21.1729 23.1573 21.7475L24.6018 24.2493C24.9335 24.0578 25.3278 24.0059 25.6978 24.105C26.0678 24.2042 26.3833 24.4448 26.5749 24.7765L29.0767 23.3335ZM23.1573 21.7475C22.1621 22.3222 21.4359 23.2687 21.1384 24.3787C20.841 25.4888 20.9967 26.6702 21.5713 27.6654L24.0731 26.2224C23.8816 25.8907 23.8297 25.4964 23.9288 25.1264C24.0279 24.7564 24.27 24.4409 24.6018 24.2493L23.1573 21.7475ZM21.5713 27.6654L28.5812 39.8074L31.083 38.363L24.0731 26.2224L21.5713 27.6654Z" fill="black"/>
<path d="M32.5 65C34.4944 65 36.1111 63.3832 36.1111 61.3889C36.1111 59.3945 34.4944 57.7778 32.5 57.7778C30.5057 57.7778 28.8889 59.3945 28.8889 61.3889C28.8889 63.3832 30.5057 65 32.5 65Z" fill="black"/>
<path d="M71.5 65C73.4944 65 75.1111 63.3832 75.1111 61.3889C75.1111 59.3945 73.4944 57.7778 71.5 57.7778C69.5057 57.7778 67.8889 59.3945 67.8889 61.3889C67.8889 63.3832 69.5057 65 71.5 65Z" fill="black"/>
</svg>
