<svg width="200" height="200" viewBox="0 0 200 200" fill="none" xmlns="http://www.w3.org/2000/svg">
<path d="M100 0C80.2219 0 60.8879 5.8649 44.443 16.853C27.9981 27.8412 15.1809 43.459 7.61209 61.7317C0.0433269 80.0043 -1.937 100.111 1.92152 119.509C5.78004 138.907 15.3041 156.725 29.2894 170.711C43.2746 184.696 61.0929 194.22 80.491 198.079C99.8891 201.937 119.996 199.957 138.268 192.388C156.541 184.819 172.159 172.002 183.147 155.557C194.135 139.112 200 119.778 200 100C199.971 73.4873 189.426 48.0688 170.679 29.3215C151.931 10.5742 126.513 0.029116 100 0ZM100 190.61C93.67 184.52 77 166.2 68.73 136H131.27C123 166.2 106.33 184.52 100 190.61ZM66.82 128C63.0596 109.523 63.0596 90.4773 66.82 72H133.18C136.941 90.4773 136.941 109.523 133.18 128H66.82ZM100 9.39C106.33 15.48 123 33.8 131.27 64H68.73C77 33.8 93.67 15.48 100 9.39ZM141.41 72H187.64C193.453 90.2142 193.453 109.786 187.64 128H141.41C144.862 109.493 144.862 90.5071 141.41 72ZM184.66 64H139.66C134.612 43.422 124.589 24.3984 110.47 8.6C126.622 10.4765 141.99 16.5889 155.019 26.3178C168.048 36.0467 178.273 49.0465 184.66 64ZM89.54 8.6C75.4212 24.3984 65.3977 43.422 60.35 64H15.35C21.7367 49.0465 31.9624 36.0467 44.991 26.3178C58.0197 16.5889 73.3884 10.4765 89.54 8.6ZM12.36 72H58.59C55.1379 90.5071 55.1379 109.493 58.59 128H12.36C6.54749 109.786 6.54749 90.2142 12.36 72ZM15.36 136H60.36C65.4077 156.578 75.4312 175.602 89.55 191.4C73.3948 189.527 58.022 183.416 44.9895 173.687C31.9571 163.958 21.7284 150.956 15.34 136H15.36ZM110.48 191.4C124.592 175.6 134.608 156.576 139.65 136H184.65C178.263 150.954 168.038 163.953 155.009 173.682C141.98 183.411 126.612 189.523 110.46 191.4H110.48Z" fill="black"/>
</svg>
