<svg width="236" height="236" viewBox="0 0 236 236" fill="none" xmlns="http://www.w3.org/2000/svg">
<path d="M112 30V6C112 4.4087 112.632 2.88258 113.757 1.75736C114.883 0.632141 116.409 0 118 0C119.591 0 121.117 0.632141 122.243 1.75736C123.368 2.88258 124 4.4087 124 6V30C124 31.5913 123.368 33.1174 122.243 34.2426C121.117 35.3679 119.591 36 118 36C116.409 36 114.883 35.3679 113.757 34.2426C112.632 33.1174 112 31.5913 112 30ZM180 118C180 130.262 176.364 142.25 169.551 152.445C162.738 162.641 153.055 170.588 141.726 175.281C130.397 179.973 117.931 181.201 105.904 178.809C93.8776 176.416 82.8302 170.511 74.1594 161.841C65.4885 153.17 59.5836 142.122 57.1913 130.096C54.799 118.069 56.0268 105.603 60.7195 94.2736C65.4121 82.9446 73.3588 73.2615 83.5546 66.4489C93.7505 59.6362 105.738 56 118 56C134.438 56.0185 150.197 62.5566 161.82 74.1798C173.443 85.8031 179.981 101.562 180 118ZM168 118C168 108.111 165.068 98.4439 159.573 90.2215C154.079 81.999 146.27 75.5904 137.134 71.806C127.998 68.0216 117.945 67.0315 108.245 68.9607C98.5464 70.89 89.6373 75.652 82.6447 82.6447C75.652 89.6373 70.89 98.5464 68.9607 108.245C67.0315 117.945 68.0216 127.998 71.806 137.134C75.5904 146.27 81.999 154.079 90.2215 159.573C98.4439 165.068 108.111 168 118 168C131.256 167.984 143.964 162.711 153.338 153.338C162.711 143.964 167.984 131.256 168 118ZM49.76 58.24C50.3093 58.8295 50.9717 59.3023 51.7077 59.6302C52.4437 59.9582 53.2382 60.1345 54.0438 60.1487C54.8494 60.1629 55.6497 60.0148 56.3968 59.713C57.1439 59.4112 57.8226 58.9621 58.3923 58.3923C58.9621 57.8226 59.4112 57.1439 59.713 56.3968C60.0148 55.6497 60.1629 54.8494 60.1487 54.0438C60.1345 53.2382 59.9582 52.4437 59.6302 51.7077C59.3023 50.9717 58.8295 50.3093 58.24 49.76L42.24 33.76C41.1026 32.7002 39.5982 32.1232 38.0438 32.1506C36.4894 32.178 35.0063 32.8077 33.907 33.907C32.8077 35.0063 32.178 36.4894 32.1506 38.0438C32.1232 39.5982 32.7002 41.1026 33.76 42.24L49.76 58.24ZM49.76 177.76L33.76 193.76C33.1705 194.309 32.6977 194.972 32.3698 195.708C32.0418 196.444 31.8655 197.238 31.8513 198.044C31.8371 198.849 31.9852 199.65 32.287 200.397C32.5888 201.144 33.0379 201.823 33.6077 202.392C34.1774 202.962 34.8561 203.411 35.6032 203.713C36.3503 204.015 37.1506 204.163 37.9562 204.149C38.7618 204.135 39.5563 203.958 40.2923 203.63C41.0283 203.302 41.6907 202.829 42.24 202.24L58.24 186.24C58.8295 185.691 59.3023 185.028 59.6302 184.292C59.9582 183.556 60.1345 182.762 60.1487 181.956C60.1629 181.151 60.0148 180.35 59.713 179.603C59.4112 178.856 58.9621 178.177 58.3923 177.608C57.8226 177.038 57.1439 176.589 56.3968 176.287C55.6497 175.985 54.8494 175.837 54.0438 175.851C53.2382 175.865 52.4437 176.042 51.7077 176.37C50.9717 176.698 50.3093 177.171 49.76 177.76ZM182 60C183.591 59.9986 185.116 59.3655 186.24 58.24L202.24 42.24C203.3 41.1026 203.877 39.5982 203.849 38.0438C203.822 36.4894 203.192 35.0063 202.093 33.907C200.994 32.8077 199.511 32.178 197.956 32.1506C196.402 32.1232 194.897 32.7002 193.76 33.76L177.76 49.76C176.922 50.5991 176.351 51.6677 176.12 52.8309C175.889 53.9941 176.008 55.1997 176.462 56.2954C176.915 57.3911 177.684 58.3278 178.669 58.9871C179.655 59.6465 180.814 59.999 182 60ZM186.24 177.76C185.103 176.7 183.598 176.123 182.044 176.151C180.489 176.178 179.006 176.808 177.907 177.907C176.808 179.006 176.178 180.489 176.151 182.044C176.123 183.598 176.7 185.103 177.76 186.24L193.76 202.24C194.897 203.3 196.402 203.877 197.956 203.849C199.511 203.822 200.994 203.192 202.093 202.093C203.192 200.994 203.822 199.511 203.849 197.956C203.877 196.402 203.3 194.897 202.24 193.76L186.24 177.76ZM36 118C36 116.409 35.3679 114.883 34.2426 113.757C33.1174 112.632 31.5913 112 30 112H6C4.4087 112 2.88258 112.632 1.75736 113.757C0.632141 114.883 0 116.409 0 118C0 119.591 0.632141 121.117 1.75736 122.243C2.88258 123.368 4.4087 124 6 124H30C31.5913 124 33.1174 123.368 34.2426 122.243C35.3679 121.117 36 119.591 36 118ZM118 200C116.409 200 114.883 200.632 113.757 201.757C112.632 202.883 112 204.409 112 206V230C112 231.591 112.632 233.117 113.757 234.243C114.883 235.368 116.409 236 118 236C119.591 236 121.117 235.368 122.243 234.243C123.368 233.117 124 231.591 124 230V206C124 204.409 123.368 202.883 122.243 201.757C121.117 200.632 119.591 200 118 200ZM230 112H206C204.409 112 202.883 112.632 201.757 113.757C200.632 114.883 200 116.409 200 118C200 119.591 200.632 121.117 201.757 122.243C202.883 123.368 204.409 124 206 124H230C231.591 124 233.117 123.368 234.243 122.243C235.368 121.117 236 119.591 236 118C236 116.409 235.368 114.883 234.243 113.757C233.117 112.632 231.591 112 230 112Z" fill="black"/>
</svg>
